<?xml version="1.0" encoding="UTF-8" standalone="no"?>
<svg
   xmlns:dc="http://purl.org/dc/elements/1.1/"
   xmlns:cc="http://creativecommons.org/ns#"
   xmlns:rdf="http://www.w3.org/1999/02/22-rdf-syntax-ns#"
   xmlns:svg="http://www.w3.org/2000/svg"
   xmlns="http://www.w3.org/2000/svg"
   viewBox="0 0 1333.3333 1333.3333"
   height="1333.3333"
   width="1333.3333"
   xml:space="preserve"
   id="svg2"
   version="1.1"><metadata
     id="metadata8"><rdf:RDF><cc:Work
         rdf:about=""><dc:format>image/svg+xml</dc:format><dc:type
           rdf:resource="http://purl.org/dc/dcmitype/StillImage" /></cc:Work></rdf:RDF></metadata><defs
     id="defs6"><clipPath
       id="clipPath20"
       clipPathUnits="userSpaceOnUse"><path
         id="path18"
         d="M 0,1000 H 1000 V 0 H 0 Z" /></clipPath></defs><g
     transform="matrix(1.3333333,0,0,-1.3333333,0,1333.3333)"
     id="g10"><path
       id="path12"
       style="fill:#222831;fill-opacity:1;fill-rule:nonzero;stroke:none"
       d="M 0,0 H 1000 V 1000 H 0 Z" /><g
       id="g14"><g
         clip-path="url(#clipPath20)"
         id="g16"><g
           transform="translate(396.1416,393.6738)"
           id="g22"><path
             id="path24"
             style="fill:#00adb5;fill-opacity:1;fill-rule:nonzero;stroke:none"
             d="m 0,0 c -1.308,0 -2.633,0.396 -3.822,1.226 l -59.152,41.275 c -2.129,1.486 -3.407,4.101 -3.374,6.895 0.035,2.797 1.378,5.372 3.545,6.792 l 59.151,38.791 c 3.43,2.245 7.844,0.975 9.865,-2.833 2.02,-3.811 0.881,-8.721 -2.547,-10.969 L -45.286,49.074 3.837,14.798 C 7.206,12.445 8.225,7.501 6.109,3.753 4.741,1.329 2.396,0 0,0" /></g><g
           transform="translate(445.9424,576.2305)"
           id="g26"><path
             id="path28"
             style="fill:#00adb5;fill-opacity:1;fill-rule:nonzero;stroke:none"
             d="m 0,0 c -0.766,-1.558 -1.34,-3.307 -1.695,-5.193 -4.591,0 -10.768,-0.137 -17.82,-0.71 0.411,1.858 0.93,3.689 1.585,5.466 C -11.425,0.027 -5.084,0.082 0,0" /></g><g
           transform="translate(527.4141,559.5312)"
           id="g30"><path
             id="path32"
             style="fill:#00adb5;fill-opacity:1;fill-rule:nonzero;stroke:none"
             d="m 0,0 c -23.914,10.358 -44.979,12.998 -57.223,13.763 -1.831,5.794 -5.821,11.071 -12.716,10.753 -0.109,0 -0.574,0.027 -1.339,0.082 -3.471,0.191 -13.173,0.601 -24.187,0.136 3.772,6.587 9.019,12.245 15.25,16.563 4.291,2.951 9.019,5.247 14.075,6.805 4.755,1.448 6.888,10.167 14.977,10.167 8.117,0 11.479,-8.937 16.726,-10.741 C -14.622,40.695 -0.328,22.029 0,0" /></g><g
           transform="translate(569.8282,465.71)"
           id="g34"><path
             id="path36"
             style="fill:#00adb5;fill-opacity:1;fill-rule:nonzero;stroke:none"
             d="m 0,0 2.181,-1.446 c -4.889,-16.018 -15.353,-26.231 -23.936,-32.242 v 40.48 c 0,10.465 -8.515,18.979 -18.978,18.979 -10.488,0 -19.025,-8.514 -19.025,-18.979 v -17.143 h -1.858 V 6.792 c 0,10.465 -8.515,18.979 -19.002,18.979 -6.907,0 -12.966,-3.695 -16.317,-9.203 -3.465,4.337 -8.812,7.091 -14.778,7.091 -10.465,0 -19.002,-8.513 -19.002,-19.001 v -39.356 c -16.592,8.811 -27.883,26.299 -27.883,46.401 0,20.034 11.2,37.406 27.677,46.288 -8.56,9.133 -13.838,21.433 -13.838,34.973 0,2.066 0.092,4.085 0.366,6.081 7.161,0.597 13.54,0.781 18.29,0.781 0.162,-9.822 5.761,-17.694 12.623,-17.694 6.104,0 13.608,6.059 14.755,14.389 12.37,-0.963 32.817,-3.878 55.214,-14.251 -1.17,-5.553 -3.259,-10.786 -6.081,-15.513 -4.566,-7.642 -11.107,-14.045 -18.887,-18.405 34.814,-31.416 64.234,7.734 64.234,7.734 L 2.846,36.557 C 3.053,35.616 3.236,34.698 3.396,33.803 -0.619,32.266 -4.062,29.259 -6.196,25.22 -10.877,16.431 -8.146,5.347 0,0" /></g><g
           transform="translate(574.3946,476.082)"
           id="g38"><path
             id="path40"
             style="fill:#00adb5;fill-opacity:1;fill-rule:nonzero;stroke:none"
             d="m 0,0 c -2.271,2.502 -2.822,6.518 -1.124,9.73 0.391,0.735 0.872,1.354 1.399,1.905 C 0.506,7.527 0.391,3.649 0,0" /></g><g
           transform="translate(421.2061,540.5786)"
           id="g42"><path
             id="path44"
             style="fill:#eeeeee;fill-opacity:1;fill-rule:nonzero;stroke:none"
             d="m 0,0 c -4.68,-3.303 -13.794,-9.114 -18.105,-7.554 -5.934,2.171 9.174,14.955 9.174,14.955 -11.714,0.52 -18.534,14.926 -18.534,14.926 H -3.089 C -3.211,20.95 -3.272,19.543 -3.272,18.106 -3.272,11.714 -2.11,5.627 0,0" /></g><g
           transform="translate(466.1924,470.3682)"
           id="g46"><path
             id="path48"
             style="fill:#eeeeee;fill-opacity:1;fill-rule:nonzero;stroke:none"
             d="m 0,0 v -45.828 c 0,-7.688 -2.387,-14.183 -7.183,-19.484 -4.773,-5.3 -11.474,-7.94 -20.102,-7.94 -11.612,0 -19.553,4.153 -23.821,12.439 -2.134,4.13 0.275,9.202 4.819,10.257 l 1.308,0.322 c 3.098,0.734 6.242,-0.689 7.917,-3.397 0.528,-0.872 1.148,-1.629 1.882,-2.317 1.928,-1.79 4.291,-2.686 7.114,-2.686 4.36,0 7.435,1.469 9.225,4.406 1.515,2.502 2.387,6.036 2.616,10.58 0.046,0.826 0.07,1.675 0.07,2.57 V 0 c 0,4.452 3.626,8.078 8.078,8.078 C -3.603,8.078 0,4.452 0,0" /></g><g
           transform="translate(537.1495,472.502)"
           id="g50"><path
             id="path52"
             style="fill:#eeeeee;fill-opacity:1;fill-rule:nonzero;stroke:none"
             d="m 0,0 v -70.773 c 0,-4.452 -3.603,-8.055 -8.055,-8.055 -4.452,0 -8.1,3.603 -8.1,8.055 v 28.066 h -23.73 v -28.066 c 0,-4.452 -3.602,-8.055 -8.054,-8.055 -4.453,0 -8.079,3.603 -8.079,8.055 V 0 c 0,4.452 3.626,8.056 8.079,8.056 4.452,0 8.054,-3.604 8.054,-8.056 v -28.065 h 23.73 V 0 c 0,4.452 3.648,8.056 8.1,8.056 C -3.603,8.056 0,4.452 0,0" /></g><g
           transform="translate(670.2051,443.0576)"
           id="g54"><path
             id="path56"
             style="fill:#00adb5;fill-opacity:1;fill-rule:nonzero;stroke:none"
             d="m 0,0 c 0.046,-2.777 -1.239,-5.393 -3.373,-6.885 l -59.139,-41.284 c -1.193,-0.826 -2.524,-1.217 -3.832,-1.217 -2.386,0 -4.727,1.331 -6.104,3.764 -2.112,3.741 -1.102,8.675 2.271,11.038 l 49.133,34.263 -48.972,32.104 c -0.528,0.345 -1.009,0.758 -1.422,1.239 -2.273,2.502 -2.824,6.518 -1.125,9.731 0.39,0.734 0.872,1.354 1.4,1.905 2.271,2.272 5.691,2.753 8.468,0.941 L -3.534,6.793 C -1.377,5.393 -0.022,2.8 0,0" /></g><g
           transform="translate(670.2051,443.0576)"
           id="g58"><path
             id="path60"
             style="fill:#00adb5;fill-opacity:1;fill-rule:nonzero;stroke:none"
             d="m 0,0 c 0.046,-2.777 -1.239,-5.393 -3.373,-6.885 l -59.139,-41.284 c -1.193,-0.826 -2.524,-1.217 -3.832,-1.217 -2.386,0 -4.727,1.331 -6.104,3.764 -2.112,3.741 -1.102,8.675 2.271,11.038 l 49.133,34.263 -48.972,32.104 c -0.528,0.345 -1.009,0.758 -1.422,1.239 -2.273,2.502 -2.824,6.518 -1.125,9.731 0.39,0.734 0.872,1.354 1.4,1.905 2.271,2.272 5.691,2.753 8.468,0.941 L -3.534,6.793 C -1.377,5.393 -0.022,2.8 0,0" /></g><g
           transform="translate(572.0089,464.2637)"
           id="g62"><path
             id="path64"
             style="fill:#00adb5;fill-opacity:1;fill-rule:nonzero;stroke:none"
             d="m 0,0 c 0,0 5.236,14.107 1.216,35.249 -4.02,21.142 -22.47,-23.431 -22.47,-23.431 l 11.373,-25.925 z" /></g><g
           transform="translate(558.2842,382.2002)"
           id="g66"><path
             id="path68"
             style="fill:#222831;fill-opacity:1;fill-rule:nonzero;stroke:none"
             d="m 0,0 c -1.658,0 -3.299,0.262 -4.879,0.782 -3.973,1.311 -7.193,4.085 -9.071,7.817 -1.88,3.717 -2.196,7.958 -0.888,11.927 L 11.02,99.087 c 2.116,6.425 8.084,10.743 14.853,10.743 1.659,0 3.299,-0.262 4.879,-0.782 8.191,-2.694 12.66,-11.548 9.969,-19.735 L 14.858,10.746 C 12.738,4.318 6.769,0 0,0" /></g><g
           transform="translate(586.1729,482.5283)"
           id="g70"><path
             id="path72"
             style="fill:#00adb5;fill-opacity:1;fill-rule:nonzero;stroke:none"
             d="m 0,0 c -3.385,1.111 -7.037,-0.733 -8.148,-4.112 l -25.861,-78.564 c -0.54,-1.637 -0.41,-3.386 0.368,-4.926 0.776,-1.539 2.104,-2.684 3.741,-3.222 l 0.002,-0.002 c 0.668,-0.22 1.344,-0.322 2.009,-0.322 2.712,0 5.244,1.722 6.139,4.436 L 4.112,-8.148 C 5.224,-4.767 3.377,-1.111 0,0" /></g></g></g></g></svg>