<?xml version="1.0" encoding="UTF-8" standalone="no"?>
<svg
   viewBox="0 0 740.22891 131.55292"
   height="131.55292"
   width="740.22888"
   xml:space="preserve"
   id="svg2"
   version="1.1"
   sodipodi:docname="logoFull.svg"
   inkscape:version="1.2 (dc2aedaf03, 2022-05-15)"
   inkscape:export-filename="logoFull.png"
   inkscape:export-xdpi="96"
   inkscape:export-ydpi="96"
   xmlns:inkscape="http://www.inkscape.org/namespaces/inkscape"
   xmlns:sodipodi="http://sodipodi.sourceforge.net/DTD/sodipodi-0.dtd"
   xmlns="http://www.w3.org/2000/svg"
   xmlns:svg="http://www.w3.org/2000/svg"
   xmlns:rdf="http://www.w3.org/1999/02/22-rdf-syntax-ns#"
   xmlns:cc="http://creativecommons.org/ns#"
   xmlns:dc="http://purl.org/dc/elements/1.1/"><sodipodi:namedview
     id="namedview904"
     pagecolor="#ffffff"
     bordercolor="#000000"
     borderopacity="0.25"
     inkscape:showpageshadow="2"
     inkscape:pageopacity="0.0"
     inkscape:pagecheckerboard="0"
     inkscape:deskcolor="#d1d1d1"
     showgrid="false"
     inkscape:zoom="1.0012633"
     inkscape:cx="797.99193"
     inkscape:cy="757.54302"
     inkscape:window-width="1680"
     inkscape:window-height="946"
     inkscape:window-x="1912"
     inkscape:window-y="-8"
     inkscape:window-maximized="1"
     inkscape:current-layer="g10" /><metadata
     id="metadata8"><rdf:RDF><cc:Work
         rdf:about=""><dc:format>image/svg+xml</dc:format><dc:type
           rdf:resource="http://purl.org/dc/dcmitype/StillImage" /></cc:Work></rdf:RDF></metadata><defs
     id="defs6"><clipPath
       id="clipPath20"
       clipPathUnits="userSpaceOnUse"><path
         id="path18"
         d="M 0,1000 H 1000 V 0 H 0 Z" /></clipPath></defs><g
     transform="matrix(1.3333333,0,0,-1.3333333,-296.55187,731.96278)"
     id="g10"><g
       id="g959"><g
         id="g14"><g
           clip-path="url(#clipPath20)"
           id="g16"><g
             transform="translate(435.5088,507.4272)"
             id="g22"><path
               id="path24"
               style="fill:#eeeeee;fill-opacity:1;fill-rule:nonzero;stroke:none"
               d="M 0,0 C -0.718,0.752 -1.687,1.124 -2.888,1.124 -3.951,1.124 -4.894,0.752 -5.716,0 -6.52,-0.752 -6.935,-1.677 -6.935,-2.793 v -37.118 c 0,-1.107 0.398,-2.041 1.203,-2.784 0.778,-0.752 1.685,-1.124 2.723,-1.124 1.237,0 2.239,0.372 2.991,1.124 0.744,0.743 1.124,1.677 1.124,2.784 V -2.793 C 1.106,-1.677 0.743,-0.752 0,0 m -31.516,-24.936 h 28.628 v 7.384 H -31.516 Z M -28.594,0 c -0.795,0.752 -1.703,1.124 -2.731,1.124 -1.194,0 -2.188,-0.372 -2.957,-1.124 -0.761,-0.752 -1.151,-1.677 -1.151,-2.793 v -37.118 c 0,-1.107 0.364,-2.041 1.09,-2.784 0.718,-0.752 1.686,-1.124 2.888,-1.124 1.072,0 2.015,0.372 2.827,1.124 0.805,0.743 1.22,1.677 1.22,2.784 v 37.118 c 0,1.116 -0.399,2.041 -1.186,2.793" /></g><g
             transform="translate(468.1914,484.541)"
             id="g26"><path
               id="path28"
               style="fill:#eeeeee;fill-opacity:1;fill-rule:nonzero;stroke:none"
               d="m 0,0 h -16.817 c 0.095,0.536 0.233,1.028 0.389,1.479 0.467,1.365 1.107,2.463 1.919,3.276 0.813,0.805 1.781,1.384 2.888,1.738 1.115,0.337 2.317,0.501 3.605,0.501 1.324,0 2.569,-0.285 3.753,-0.864 C -3.087,5.551 -2.102,4.772 -1.314,3.787 -0.519,2.81 -0.078,1.694 0,0.449 Z m 6.994,-5.456 c 0.778,0.64 1.185,1.47 1.229,2.499 0,2.316 -0.442,4.496 -1.306,6.545 -0.882,2.058 -2.066,3.873 -3.571,5.43 -1.496,1.573 -3.225,2.801 -5.17,3.692 -1.946,0.898 -4.012,1.357 -6.192,1.357 -2.827,0 -5.499,-0.735 -8.023,-2.187 -2.524,-1.462 -4.582,-3.537 -6.139,-6.26 -1.565,-2.716 -2.343,-6.001 -2.343,-9.857 0,-3.303 0.709,-6.251 2.144,-8.854 1.444,-2.611 3.493,-4.678 6.165,-6.199 2.681,-1.522 5.836,-2.282 9.477,-2.282 2.135,0 4.21,0.345 6.233,1.063 2.006,0.7 3.571,1.522 4.687,2.464 1.193,0.942 1.79,1.988 1.79,3.148 0,0.864 -0.303,1.608 -0.935,2.248 -0.613,0.639 -1.4,0.967 -2.343,0.967 -0.675,0 -1.4,-0.19 -2.178,-0.579 -0.467,-0.267 -1.003,-0.57 -1.566,-0.933 -0.579,-0.364 -1.34,-0.675 -2.282,-0.925 -0.942,-0.269 -2.214,-0.39 -3.796,-0.39 -1.703,0 -3.32,0.415 -4.842,1.245 -1.53,0.83 -2.758,2.058 -3.726,3.658 -0.571,0.942 -0.968,1.997 -1.194,3.181 H 4.306 c 1.028,0 1.927,0.329 2.688,0.969" /></g><g
             transform="translate(490.7402,509.0698)"
             id="g30"><path
               id="path32"
               style="fill:#eeeeee;fill-opacity:1;fill-rule:nonzero;stroke:none"
               d="m 0,0 c -0.605,0.476 -1.651,0.7 -3.155,0.7 -1.366,0 -2.378,-0.216 -3.044,-0.674 -0.666,-0.45 -1.003,-1.297 -1.003,-2.525 v -1.219 c 0,-1.21 0.303,-2.04 0.908,-2.516 0.588,-0.467 1.616,-0.7 3.078,-0.7 1.452,0 2.507,0.216 3.147,0.674 0.64,0.45 0.96,1.297 0.96,2.542 v 1.219 C 0.891,-1.306 0.588,-0.467 0,0 m -0.328,-12.234 c -0.727,0.743 -1.643,1.124 -2.767,1.124 -1.107,0 -2.032,-0.381 -2.75,-1.124 -0.726,-0.753 -1.089,-1.686 -1.089,-2.793 v -28.826 c 0,-0.942 -0.061,-1.842 -0.173,-2.698 -0.104,-0.856 -0.372,-1.6 -0.795,-2.213 -0.433,-0.623 -1.159,-1.108 -2.188,-1.453 -0.942,-0.294 -1.729,-0.718 -2.343,-1.28 -0.614,-0.553 -0.934,-1.305 -0.934,-2.248 v -0.709 c 0,-0.976 0.346,-1.824 0.995,-2.533 0.665,-0.709 1.53,-1.055 2.61,-1.055 1.972,0 3.744,0.484 5.326,1.47 1.582,0.986 2.845,2.369 3.788,4.151 0.933,1.772 1.409,3.873 1.409,6.32 v 31.074 c 0,1.107 -0.364,2.04 -1.089,2.793" /></g><g
             transform="translate(523.5791,475.2891)"
             id="g34"><path
               id="path36"
               style="fill:#eeeeee;fill-opacity:1;fill-rule:nonzero;stroke:none"
               d="m 0,0 c -0.796,-1.616 -1.894,-2.896 -3.312,-3.839 -1.41,-0.942 -3.052,-1.418 -4.937,-1.418 -1.842,0 -3.467,0.476 -4.885,1.418 -1.409,0.943 -2.516,2.223 -3.311,3.839 -0.787,1.635 -1.185,3.459 -1.185,5.465 0,2.049 0.398,3.899 1.185,5.515 0.795,1.635 1.902,2.915 3.311,3.857 1.418,0.942 3.043,1.409 4.885,1.409 1.885,0 3.527,-0.467 4.937,-1.409 C -1.894,13.895 -0.796,12.615 0,10.98 0.786,9.364 1.185,7.514 1.185,5.465 1.185,3.459 0.786,1.635 0,0 m 7.479,34.749 c -0.727,0.727 -1.652,1.09 -2.767,1.09 -1.107,0 -2.032,-0.381 -2.759,-1.124 C 1.236,33.962 0.855,33.029 0.855,31.922 V 19.315 c -0.372,0.355 -0.778,0.693 -1.245,1.047 -1.132,0.856 -2.472,1.556 -4.011,2.11 -1.539,0.57 -3.234,0.847 -5.067,0.847 -2.88,0 -5.49,-0.761 -7.834,-2.283 -2.351,-1.521 -4.227,-3.622 -5.62,-6.294 -1.4,-2.672 -2.092,-5.767 -2.092,-9.277 0,-3.468 0.692,-6.537 2.092,-9.209 1.393,-2.68 3.277,-4.773 5.681,-6.294 2.395,-1.522 5.075,-2.282 8.023,-2.282 1.635,0 3.139,0.258 4.531,0.803 1.392,0.537 2.594,1.185 3.623,1.963 0.761,0.562 1.401,1.133 1.919,1.721 0.018,-1.081 0.389,-1.989 1.098,-2.724 0.727,-0.752 1.652,-1.124 2.759,-1.124 1.115,0 2.04,0.372 2.767,1.124 0.726,0.744 1.089,1.677 1.089,2.785 v 39.694 c 0,1.15 -0.363,2.092 -1.089,2.827" /></g><g
             transform="translate(569.7666,496.8359)"
             id="g38"><path
               id="path40"
               style="fill:#eeeeee;fill-opacity:1;fill-rule:nonzero;stroke:none"
               d="M 0,0 C -0.718,0.743 -1.643,1.124 -2.749,1.124 -3.865,1.124 -4.79,0.743 -5.517,0 -6.242,-0.753 -6.605,-1.687 -6.605,-2.793 v -16.315 c 0,-2.612 -0.58,-4.539 -1.739,-5.811 -1.149,-1.254 -2.914,-1.885 -5.257,-1.885 -2.317,0 -4.045,0.631 -5.205,1.885 -1.167,1.272 -1.729,3.199 -1.729,5.811 v 16.315 c 0,1.106 -0.362,2.04 -1.098,2.793 -0.726,0.743 -1.642,1.124 -2.758,1.124 -1.115,0 -2.032,-0.381 -2.766,-1.124 -0.727,-0.753 -1.09,-1.687 -1.09,-2.793 v -16.315 c 0,-4.531 1.263,-8.128 3.761,-10.774 2.499,-2.663 6.122,-3.985 10.885,-3.985 4.747,0 8.387,1.322 10.912,3.985 2.525,2.646 3.795,6.243 3.795,10.774 V -2.793 C 1.106,-1.687 0.727,-0.753 0,0" /></g><g
             transform="translate(602.709,477.9004)"
             id="g42"><path
               id="path44"
               style="fill:#eeeeee;fill-opacity:1;fill-rule:nonzero;stroke:none"
               d="m 0,0 c -0.684,1.219 -1.583,2.214 -2.698,2.982 -1.107,0.77 -2.334,1.393 -3.657,1.86 -1.332,0.475 -2.637,0.882 -3.917,1.219 -1.246,0.337 -2.404,0.692 -3.494,1.063 -1.097,0.363 -1.97,0.839 -2.61,1.418 -0.64,0.562 -0.951,1.35 -0.951,2.326 0,1.081 0.276,1.867 0.83,2.352 0.561,0.493 1.21,0.821 1.962,0.96 0.744,0.164 1.435,0.233 2.075,0.233 1.583,0 3.001,-0.276 4.22,-0.83 1.219,-0.562 2.187,-1.306 2.905,-2.248 0.562,-0.519 1.271,-0.813 2.127,-0.873 0.864,-0.061 1.608,0.155 2.248,0.675 0.899,0.725 1.306,1.539 1.219,2.446 -0.077,0.891 -0.355,1.66 -0.83,2.3 -0.908,1.167 -2.015,2.093 -3.346,2.793 -1.332,0.718 -2.715,1.219 -4.168,1.548 -1.461,0.311 -2.853,0.484 -4.185,0.484 -2.084,0 -4.089,-0.415 -6,-1.22 -1.902,-0.821 -3.459,-1.97 -4.652,-3.467 -1.192,-1.496 -1.798,-3.329 -1.798,-5.464 0,-1.885 0.364,-3.441 1.098,-4.686 0.726,-1.245 1.669,-2.239 2.827,-2.983 1.15,-0.752 2.43,-1.367 3.814,-1.842 1.391,-0.467 2.749,-0.891 4.072,-1.279 1.297,-0.337 2.455,-0.701 3.511,-1.09 1.045,-0.38 1.893,-0.856 2.533,-1.409 0.639,-0.553 0.968,-1.306 0.968,-2.248 0,-1.107 -0.294,-1.937 -0.874,-2.473 -0.579,-0.536 -1.253,-0.873 -2.032,-1.028 -0.76,-0.148 -1.469,-0.243 -2.109,-0.295 -2.058,0 -3.77,0.354 -5.136,1.029 -1.375,0.691 -2.681,1.66 -3.917,2.888 -0.734,0.735 -1.486,1.124 -2.248,1.193 -0.769,0.061 -1.495,-0.121 -2.187,-0.536 -1.072,-0.692 -1.625,-1.504 -1.661,-2.446 -0.051,-0.944 0.139,-1.713 0.581,-2.318 1.66,-2.222 3.751,-3.769 6.277,-4.652 2.524,-0.882 5.049,-1.314 7.591,-1.314 2.006,0 3.977,0.398 5.896,1.185 1.929,0.795 3.537,1.962 4.817,3.501 1.279,1.548 1.927,3.407 1.927,5.577 C 1.028,-2.784 0.683,-1.219 0,0" /></g><g
             transform="translate(632.7715,484.541)"
             id="g46"><path
               id="path48"
               style="fill:#eeeeee;fill-opacity:1;fill-rule:nonzero;stroke:none"
               d="m 0,0 h -16.834 c 0.095,0.536 0.225,1.028 0.389,1.479 0.466,1.365 1.106,2.463 1.928,3.276 0.813,0.805 1.781,1.384 2.888,1.738 1.115,0.337 2.309,0.501 3.588,0.501 1.331,0 2.585,-0.285 3.761,-0.864 C -3.096,5.551 -2.118,4.772 -1.323,3.787 -0.536,2.81 -0.104,1.694 0,0.449 Z m 6.994,-5.456 c 0.771,0.64 1.168,1.47 1.22,2.499 0,2.316 -0.449,4.496 -1.323,6.545 -0.882,2.058 -2.067,3.873 -3.562,5.43 -1.496,1.573 -3.225,2.801 -5.171,3.692 -1.945,0.898 -4.012,1.357 -6.199,1.357 -2.827,0 -5.499,-0.735 -8.023,-2.187 -2.526,-1.462 -4.566,-3.537 -6.139,-6.26 -1.557,-2.716 -2.326,-6.001 -2.326,-9.857 0,-3.303 0.709,-6.251 2.144,-8.854 1.427,-2.611 3.485,-4.678 6.164,-6.199 2.672,-1.522 5.828,-2.282 9.477,-2.282 2.136,0 4.211,0.345 6.217,1.063 2.023,0.7 3.579,1.522 4.694,2.464 1.193,0.942 1.799,1.988 1.799,3.148 0,0.864 -0.32,1.608 -0.934,2.248 -0.623,0.639 -1.401,0.967 -2.344,0.967 -0.691,0 -1.409,-0.19 -2.187,-0.579 -0.467,-0.267 -0.985,-0.57 -1.564,-0.933 -0.588,-0.364 -1.349,-0.675 -2.291,-0.925 -0.943,-0.269 -2.197,-0.39 -3.779,-0.39 -1.712,0 -3.338,0.415 -4.859,1.245 -1.505,0.83 -2.75,2.058 -3.718,3.658 -0.554,0.942 -0.96,1.997 -1.185,3.181 H 4.297 c 1.029,0 1.92,0.329 2.697,0.969" /></g><g
             transform="translate(675.9766,470.3437)"
             id="g50"><path
               id="path52"
               style="fill:#eeeeee;fill-opacity:1;fill-rule:nonzero;stroke:none"
               d="m 0,0 -11.231,12.234 -0.337,0.364 -5.837,-5.396 0.346,-0.346 11.534,-12.243 c 0.769,-0.856 1.712,-1.279 2.827,-1.279 0.856,0 1.713,0.354 2.594,1.055 0.882,0.709 1.323,1.616 1.323,2.723 C 1.219,-1.808 0.804,-0.856 0,0 m -1.09,26.388 c -0.734,0.821 -1.582,1.228 -2.576,1.228 -1.072,0 -2.006,-0.407 -2.827,-1.228 l -13.739,-13.254 -0.96,-0.926 0.32,-8.854 0.64,0.588 3.173,2.914 5.828,5.378 9.683,8.906 C -0.519,22.03 0,22.999 0,24.019 c 0,0.778 -0.363,1.565 -1.09,2.369 M -21.312,39.66 c -0.745,0.743 -1.661,1.124 -2.768,1.124 -1.115,0 -2.031,-0.381 -2.758,-1.124 -0.735,-0.752 -1.099,-1.686 -1.099,-2.793 V -2.827 c 0,-1.108 0.364,-2.041 1.099,-2.784 0.727,-0.752 1.643,-1.124 2.758,-1.124 1.107,0 2.023,0.372 2.768,1.124 0.716,0.743 1.08,1.676 1.08,2.784 v 39.694 c 0,1.107 -0.364,2.041 -1.08,2.793" /></g><g
             transform="translate(717.0371,507.4272)"
             id="g54"
             style="fill:#eeeeee;fill-opacity:1"><path
               id="path56"
               style="fill:#eeeeee;fill-opacity:1;fill-rule:nonzero;stroke:none"
               d="M 0,0 C -0.718,0.752 -1.686,1.124 -2.888,1.124 -3.96,1.124 -4.902,0.752 -5.715,0 -6.52,-0.752 -6.935,-1.677 -6.935,-2.793 V -29.76 c 0,-1.245 -0.336,-2.387 -1.019,-3.467 -0.692,-1.064 -1.591,-1.92 -2.698,-2.56 -1.116,-0.657 -2.309,-0.968 -3.606,-0.968 -1.055,0 -2.014,0.156 -2.845,0.484 -0.837,0.312 -1.685,0.856 -2.542,1.634 -0.518,0.519 -1.088,0.96 -1.703,1.349 -0.613,0.389 -1.254,0.58 -1.893,0.58 -0.813,0 -1.634,-0.364 -2.464,-1.099 -0.839,-0.726 -1.263,-1.616 -1.263,-2.689 0,-0.726 0.26,-1.478 0.779,-2.248 1.332,-1.841 3.035,-3.251 5.135,-4.245 2.084,-0.977 4.359,-1.469 6.796,-1.469 2.88,0 5.465,0.682 7.774,2.048 2.317,1.375 4.158,3.164 5.524,5.405 1.375,2.221 2.05,4.633 2.05,7.245 V -2.793 C 1.09,-1.677 0.727,-0.752 0,0" /></g><g
             transform="translate(733.2832,496.8359)"
             id="g58"
             style="fill:#eeeeee;fill-opacity:1"><path
               id="path60"
               style="fill:#eeeeee;fill-opacity:1;fill-rule:nonzero;stroke:none"
               d="M 0,0 C -0.727,0.743 -1.643,1.124 -2.758,1.124 -3.873,1.124 -4.79,0.743 -5.524,0 c -0.727,-0.753 -1.09,-1.687 -1.09,-2.793 v -26.526 c 0,-1.108 0.363,-2.041 1.09,-2.785 0.734,-0.751 1.651,-1.124 2.766,-1.124 1.115,0 2.031,0.373 2.758,1.124 0.735,0.744 1.099,1.677 1.099,2.785 V -2.793 C 1.099,-1.687 0.735,-0.753 0,0 m 0.381,12.234 c -0.588,0.475 -1.643,0.7 -3.139,0.7 -1.366,0 -2.395,-0.216 -3.044,-0.674 -0.665,-0.45 -1.003,-1.297 -1.003,-2.525 V 8.516 c 0,-1.21 0.303,-2.04 0.909,-2.516 0.587,-0.467 1.617,-0.7 3.078,-0.7 1.452,0 2.499,0.216 3.138,0.674 0.64,0.45 0.968,1.297 0.968,2.542 v 1.219 c 0,1.193 -0.303,2.032 -0.907,2.499" /></g><g
             transform="translate(763.3633,497.5098)"
             id="g62"
             style="fill:#eeeeee;fill-opacity:1"><path
               id="path64"
               style="fill:#eeeeee;fill-opacity:1;fill-rule:nonzero;stroke:none"
               d="m 0,0 c -0.873,0.727 -1.954,1.099 -3.233,1.099 -1.081,0 -2.145,-0.13 -3.217,-0.39 -1.072,-0.259 -2.075,-0.648 -3.018,-1.193 -0.942,-0.537 -1.789,-1.193 -2.542,-1.98 -0.527,-0.57 -0.994,-1.184 -1.374,-1.859 v 0.856 c 0,1.107 -0.363,2.04 -1.09,2.793 -0.734,0.743 -1.651,1.124 -2.766,1.124 -1.115,0 -2.032,-0.381 -2.758,-1.124 -0.735,-0.753 -1.099,-1.686 -1.099,-2.793 v -26.526 c 0,-1.108 0.364,-2.041 1.099,-2.784 0.726,-0.752 1.643,-1.124 2.758,-1.124 1.115,0 2.032,0.372 2.766,1.124 0.727,0.743 1.09,1.676 1.09,2.784 v 15.225 c 0,1.548 0.207,2.879 0.613,4.012 0.398,1.133 0.934,2.093 1.591,2.862 0.666,0.761 1.41,1.332 2.188,1.695 0.804,0.363 1.574,0.553 2.352,0.553 0.856,0 1.617,-0.156 2.283,-0.458 0.657,-0.286 1.4,-0.45 2.205,-0.45 0.864,0 1.642,0.321 2.385,0.934 0.718,0.632 1.081,1.642 1.081,3.06 C 1.314,-1.582 0.882,-0.727 0,0" /></g><g
             transform="translate(776.3066,496.8359)"
             id="g66"
             style="fill:#eeeeee;fill-opacity:1"><path
               id="path68"
               style="fill:#eeeeee;fill-opacity:1;fill-rule:nonzero;stroke:none"
               d="m 0,0 c -0.727,0.743 -1.66,1.124 -2.767,1.124 -1.115,0 -2.032,-0.381 -2.757,-1.124 -0.727,-0.753 -1.09,-1.687 -1.09,-2.793 v -26.526 c 0,-1.108 0.363,-2.041 1.09,-2.785 0.725,-0.751 1.642,-1.124 2.757,-1.124 1.107,0 2.04,0.373 2.767,1.124 0.727,0.744 1.081,1.677 1.081,2.785 V -2.793 C 1.081,-1.687 0.727,-0.753 0,0 m 0.381,12.234 c -0.597,0.475 -1.652,0.7 -3.148,0.7 -1.366,0 -2.386,-0.216 -3.043,-0.674 -0.666,-0.45 -0.995,-1.297 -0.995,-2.525 V 8.516 c 0,-1.21 0.294,-2.04 0.891,-2.516 0.605,-0.467 1.635,-0.7 3.087,-0.7 1.461,0 2.499,0.216 3.139,0.674 0.657,0.45 0.967,1.297 0.967,2.542 v 1.219 c 0,1.193 -0.301,2.032 -0.898,2.499" /></g><g
             transform="translate(251.3252,451.3076)"
             id="g70"><path
               id="path72"
               style="fill:#00adb5;fill-opacity:1;fill-rule:nonzero;stroke:none"
               d="M 0,0 C -0.569,0 -1.147,0.172 -1.666,0.534 L -27.441,18.52 c -0.928,0.648 -1.485,1.787 -1.47,3.004 0.015,1.219 0.6,2.341 1.544,2.959 l 25.776,16.905 c 1.494,0.977 3.418,0.425 4.298,-1.235 0.881,-1.661 0.384,-3.8 -1.109,-4.78 L -19.733,21.384 1.672,6.448 C 3.14,5.423 3.584,3.269 2.662,1.636 2.066,0.579 1.045,0 0,0" /></g><g
             transform="translate(273.0264,530.8579)"
             id="g74"><path
               id="path76"
               style="fill:#00adb5;fill-opacity:1;fill-rule:nonzero;stroke:none"
               d="m 0,0 c -0.334,-0.679 -0.584,-1.441 -0.738,-2.263 -2.001,0 -4.693,-0.06 -7.766,-0.31 0.179,0.81 0.405,1.608 0.692,2.382 C -4.979,0.012 -2.216,0.036 0,0" /></g><g
             transform="translate(308.5283,523.5811)"
             id="g78"><path
               id="path80"
               style="fill:#00adb5;fill-opacity:1;fill-rule:nonzero;stroke:none"
               d="m 0,0 c -10.421,4.514 -19.6,5.664 -24.936,5.998 -0.797,2.524 -2.536,4.824 -5.541,4.685 -0.047,0 -0.25,0.012 -0.583,0.035 -1.512,0.084 -5.741,0.262 -10.54,0.06 1.644,2.87 3.93,5.336 6.646,7.217 1.869,1.286 3.93,2.287 6.133,2.965 2.072,0.632 3.002,4.431 6.526,4.431 3.537,0 5.002,-3.894 7.289,-4.681 C -6.372,17.733 -0.143,9.599 0,0" /></g><g
             transform="translate(327.0107,482.6973)"
             id="g82"><path
               id="path84"
               style="fill:#00adb5;fill-opacity:1;fill-rule:nonzero;stroke:none"
               d="M 0,0 0.95,-0.63 C -1.181,-7.609 -5.74,-12.06 -9.48,-14.68 V 2.96 c 0,4.561 -3.71,8.27 -8.27,8.27 -4.57,0 -8.29,-3.709 -8.29,-8.27 v -7.47 h -0.811 v 7.47 c 0,4.561 -3.71,8.27 -8.279,8.27 -3.011,0 -5.65,-1.61 -7.11,-4.009 -1.51,1.889 -3.84,3.09 -6.441,3.09 -4.559,0 -8.279,-3.71 -8.279,-8.281 v -17.15 c -7.23,3.841 -12.15,11.46 -12.15,20.221 0,8.729 4.88,16.299 12.06,20.169 -3.73,3.98 -6.03,9.34 -6.03,15.24 0,0.9 0.04,1.78 0.16,2.65 3.12,0.26 5.899,0.34 7.97,0.34 0.07,-4.28 2.51,-7.71 5.5,-7.71 2.66,0 5.929,2.64 6.429,6.27 5.391,-0.42 14.3,-1.69 24.061,-6.21 -0.511,-2.42 -1.42,-4.7 -2.65,-6.76 -1.991,-3.33 -4.84,-6.12 -8.23,-8.02 15.17,-13.69 27.989,3.37 27.989,3.37 l 3.09,-8.509 C 1.33,15.521 1.41,15.12 1.479,14.73 -0.271,14.061 -1.771,12.75 -2.7,10.99 -4.74,7.16 -3.55,2.33 0,0" /></g><g
             transform="translate(329,487.2178)"
             id="g86"><path
               id="path88"
               style="fill:#00adb5;fill-opacity:1;fill-rule:nonzero;stroke:none"
               d="M 0,0 C -0.989,1.09 -1.229,2.84 -0.489,4.239 -0.319,4.56 -0.109,4.83 0.12,5.069 0.221,3.279 0.171,1.59 0,0" /></g><g
             transform="translate(262.2471,515.3223)"
             id="g90"><path
               id="path92"
               style="fill:#eeeeee;fill-opacity:1;fill-rule:nonzero;stroke:none"
               d="m 0,0 c -2.039,-1.439 -6.011,-3.972 -7.89,-3.292 -2.586,0.946 3.998,6.517 3.998,6.517 -5.104,0.227 -8.076,6.504 -8.076,6.504 H -1.346 C -1.399,9.129 -1.426,8.516 -1.426,7.89 -1.426,5.104 -0.92,2.452 0,0" /></g><g
             transform="translate(281.8506,484.7275)"
             id="g94"><path
               id="path96"
               style="fill:#eeeeee;fill-opacity:1;fill-rule:nonzero;stroke:none"
               d="m 0,0 v -19.97 c 0,-3.35 -1.04,-6.18 -3.13,-8.49 -2.08,-2.311 -5,-3.46 -8.76,-3.46 -5.06,0 -8.52,1.81 -10.381,5.42 -0.929,1.8 0.121,4.01 2.101,4.47 l 0.569,0.14 c 1.351,0.32 2.721,-0.3 3.451,-1.48 0.23,-0.38 0.5,-0.71 0.82,-1.01 0.84,-0.78 1.87,-1.17 3.1,-1.17 1.9,0 3.24,0.64 4.02,1.92 0.66,1.09 1.04,2.63 1.14,4.609 0.02,0.361 0.03,0.731 0.03,1.121 V 0 c 0,1.94 1.58,3.52 3.519,3.52 C -1.57,3.52 0,1.94 0,0" /></g><g
             transform="translate(312.7705,485.6572)"
             id="g98"><path
               id="path100"
               style="fill:#eeeeee;fill-opacity:1;fill-rule:nonzero;stroke:none"
               d="m 0,0 v -30.84 c 0,-1.939 -1.57,-3.51 -3.51,-3.51 -1.94,0 -3.53,1.571 -3.53,3.51 v 12.231 H -17.38 V -30.84 c 0,-1.939 -1.57,-3.51 -3.51,-3.51 -1.94,0 -3.52,1.571 -3.52,3.51 V 0 c 0,1.94 1.58,3.511 3.52,3.511 1.94,0 3.51,-1.571 3.51,-3.511 V -12.229 H -7.04 V 0 c 0,1.94 1.59,3.511 3.53,3.511 C -1.57,3.511 0,1.94 0,0" /></g><g
             transform="translate(370.75,472.8271)"
             id="g102"><path
               id="path104"
               style="fill:#00adb5;fill-opacity:1;fill-rule:nonzero;stroke:none"
               d="m 0,0 c 0.021,-1.21 -0.539,-2.351 -1.47,-3 l -25.769,-17.99 c -0.521,-0.361 -1.101,-0.531 -1.67,-0.531 -1.04,0 -2.061,0.581 -2.66,1.64 -0.92,1.631 -0.481,3.78 0.99,4.811 L -9.17,-0.141 -30.51,13.85 c -0.229,0.15 -0.439,0.33 -0.62,0.54 -0.989,1.089 -1.229,2.839 -0.489,4.24 0.17,0.319 0.38,0.59 0.609,0.83 0.99,0.989 2.481,1.199 3.691,0.409 L -1.539,2.96 C -0.6,2.35 -0.01,1.22 0,0" /></g><g
             transform="translate(370.75,472.8271)"
             id="g106"><path
               id="path108"
               style="fill:#00adb5;fill-opacity:1;fill-rule:nonzero;stroke:none"
               d="m 0,0 c 0.021,-1.21 -0.539,-2.351 -1.47,-3 l -25.769,-17.99 c -0.521,-0.361 -1.101,-0.531 -1.67,-0.531 -1.04,0 -2.061,0.581 -2.66,1.64 -0.92,1.631 -0.481,3.78 0.99,4.811 L -9.17,-0.141 -30.51,13.85 c -0.229,0.15 -0.439,0.33 -0.62,0.54 -0.989,1.089 -1.229,2.839 -0.489,4.24 0.17,0.319 0.38,0.59 0.609,0.83 0.99,0.989 2.481,1.199 3.691,0.409 L -1.539,2.96 C -0.6,2.35 -0.01,1.22 0,0" /></g><g
             transform="translate(327.9609,482.0674)"
             id="g110"><path
               id="path112"
               style="fill:#00adb5;fill-opacity:1;fill-rule:nonzero;stroke:none"
               d="M 0,0 C 0,0 2.281,6.147 0.529,15.36 -1.222,24.573 -9.262,5.15 -9.262,5.15 l 4.956,-11.297 z" /></g><g
             transform="translate(334.1328,490.0264)"
             id="g118"><path
               id="path120"
               style="fill:#00adb5;fill-opacity:1;fill-rule:nonzero;stroke:none"
               d="m 0,0 c -1.475,0.484 -3.066,-0.319 -3.551,-1.792 l -11.268,-34.234 c -0.236,-0.714 -0.179,-1.476 0.16,-2.147 0.338,-0.671 0.917,-1.17 1.63,-1.404 l 10e-4,-0.001 c 0.291,-0.096 0.586,-0.141 0.876,-0.141 1.181,0 2.285,0.751 2.674,1.934 L 1.792,-3.551 C 2.276,-2.077 1.472,-0.484 0,0" /></g></g></g></g></g></svg>
